<?xml version="1.0" encoding="utf-8" standalone="no"?>
<!DOCTYPE svg PUBLIC "-//W3C//DTD SVG 1.1//EN"
  "http://www.w3.org/Graphics/SVG/1.1/DTD/svg11.dtd">
<svg xmlns:xlink="http://www.w3.org/1999/xlink" width="460.8pt" height="345.6pt" viewBox="0 0 460.8 345.6" xmlns="http://www.w3.org/2000/svg" version="1.1">
 <metadata>
  <rdf:RDF xmlns:dc="http://purl.org/dc/elements/1.1/" xmlns:cc="http://creativecommons.org/ns#" xmlns:rdf="http://www.w3.org/1999/02/22-rdf-syntax-ns#">
   <cc:Work>
    <dc:type rdf:resource="http://purl.org/dc/dcmitype/StillImage"/>
    <dc:date>2023-08-21T20:52:41.171606</dc:date>
    <dc:format>image/svg+xml</dc:format>
    <dc:creator>
     <cc:Agent>
      <dc:title>Matplotlib v3.7.2, https://matplotlib.org/</dc:title>
     </cc:Agent>
    </dc:creator>
   </cc:Work>
  </rdf:RDF>
 </metadata>
 <defs>
  <style type="text/css">*{stroke-linejoin: round; stroke-linecap: butt}</style>
 </defs>
 <g id="figure_1">
  <g id="patch_1">
   <path d="M 0 345.6 
L 460.8 345.6 
L 460.8 0 
L 0 0 
z
" style="fill: #ffffff"/>
  </g>
  <g id="axes_1">
   <g id="patch_2">
    <path d="M 23.04 302.4 
L 391.68 302.4 
L 391.68 34.56 
L 23.04 34.56 
z
" style="fill: #ffffff"/>
   </g>
   <g id="patch_3">
    <path d="M 39.796364 302.4 
L 41.673827 302.4 
L 41.673827 300.004291 
L 39.796364 300.004291 
z
" clip-path="url(#p59bb5aaa0c)" style="fill: #1f77b4"/>
   </g>
   <g id="patch_4">
    <path d="M 42.143193 302.4 
L 44.020657 302.4 
L 44.020657 300.620539 
L 42.143193 300.620539 
z
" clip-path="url(#p59bb5aaa0c)" style="fill: #1f77b4"/>
   </g>
   <g id="patch_5">
    <path d="M 44.490023 302.4 
L 46.367487 302.4 
L 46.367487 300.442593 
L 44.490023 300.442593 
z
" clip-path="url(#p59bb5aaa0c)" style="fill: #1f77b4"/>
   </g>
   <g id="patch_6">
    <path d="M 46.836853 302.4 
L 48.714316 302.4 
L 48.714316 300.531566 
L 46.836853 300.531566 
z
" clip-path="url(#p59bb5aaa0c)" style="fill: #1f77b4"/>
   </g>
   <g id="patch_7">
    <path d="M 49.183682 302.4 
L 51.061146 302.4 
L 51.061146 300.669766 
L 49.183682 300.669766 
z
" clip-path="url(#p59bb5aaa0c)" style="fill: #1f77b4"/>
   </g>
   <g id="patch_8">
    <path d="M 51.530512 302.4 
L 53.407976 302.4 
L 53.407976 300.086701 
L 51.530512 300.086701 
z
" clip-path="url(#p59bb5aaa0c)" style="fill: #1f77b4"/>
   </g>
   <g id="patch_9">
    <path d="M 53.877341 302.4 
L 55.754805 302.4 
L 55.754805 300.798485 
L 53.877341 300.798485 
z
" clip-path="url(#p59bb5aaa0c)" style="fill: #1f77b4"/>
   </g>
   <g id="patch_10">
    <path d="M 56.224171 302.4 
L 58.101635 302.4 
L 58.101635 300.842972 
L 56.224171 300.842972 
z
" clip-path="url(#p59bb5aaa0c)" style="fill: #1f77b4"/>
   </g>
   <g id="patch_11">
    <path d="M 58.571001 302.4 
L 60.448464 302.4 
L 60.448464 300.492306 
L 58.571001 300.492306 
z
" clip-path="url(#p59bb5aaa0c)" style="fill: #1f77b4"/>
   </g>
   <g id="patch_12">
    <path d="M 60.91783 302.4 
L 62.795294 302.4 
L 62.795294 300.931945 
L 60.91783 300.931945 
z
" clip-path="url(#p59bb5aaa0c)" style="fill: #1f77b4"/>
   </g>
   <g id="patch_13">
    <path d="M 63.26466 302.4 
L 65.142124 302.4 
L 65.142124 300.309133 
L 63.26466 300.309133 
z
" clip-path="url(#p59bb5aaa0c)" style="fill: #1f77b4"/>
   </g>
   <g id="patch_14">
    <path d="M 65.61149 302.4 
L 67.488953 302.4 
L 67.488953 300.442593 
L 65.61149 300.442593 
z
" clip-path="url(#p59bb5aaa0c)" style="fill: #1f77b4"/>
   </g>
   <g id="patch_15">
    <path d="M 67.958319 302.4 
L 69.835783 302.4 
L 69.835783 300.314846 
L 67.958319 300.314846 
z
" clip-path="url(#p59bb5aaa0c)" style="fill: #1f77b4"/>
   </g>
   <g id="patch_16">
    <path d="M 70.305149 302.4 
L 72.182613 302.4 
L 72.182613 300.842972 
L 70.305149 300.842972 
z
" clip-path="url(#p59bb5aaa0c)" style="fill: #1f77b4"/>
   </g>
   <g id="patch_17">
    <path d="M 72.651979 302.4 
L 74.529442 302.4 
L 74.529442 299.908755 
L 72.651979 299.908755 
z
" clip-path="url(#p59bb5aaa0c)" style="fill: #1f77b4"/>
   </g>
   <g id="patch_18">
    <path d="M 74.998808 302.4 
L 76.876272 302.4 
L 76.876272 300.931945 
L 74.998808 300.931945 
z
" clip-path="url(#p59bb5aaa0c)" style="fill: #1f77b4"/>
   </g>
   <g id="patch_19">
    <path d="M 77.345638 302.4 
L 79.223102 302.4 
L 79.223102 300.536671 
L 77.345638 300.536671 
z
" clip-path="url(#p59bb5aaa0c)" style="fill: #1f77b4"/>
   </g>
   <g id="patch_20">
    <path d="M 79.692468 302.4 
L 81.569931 302.4 
L 81.569931 300.442593 
L 79.692468 300.442593 
z
" clip-path="url(#p59bb5aaa0c)" style="fill: #1f77b4"/>
   </g>
   <g id="patch_21">
    <path d="M 82.039297 302.4 
L 83.916761 302.4 
L 83.916761 299.775295 
L 82.039297 299.775295 
z
" clip-path="url(#p59bb5aaa0c)" style="fill: #1f77b4"/>
   </g>
   <g id="patch_22">
    <path d="M 84.386127 302.4 
L 86.263591 302.4 
L 86.263591 300.798485 
L 84.386127 300.798485 
z
" clip-path="url(#p59bb5aaa0c)" style="fill: #1f77b4"/>
   </g>
   <g id="patch_23">
    <path d="M 86.732956 302.4 
L 88.61042 302.4 
L 88.61042 299.953241 
L 86.732956 299.953241 
z
" clip-path="url(#p59bb5aaa0c)" style="fill: #1f77b4"/>
   </g>
   <g id="patch_24">
    <path d="M 89.079786 302.4 
L 90.95725 302.4 
L 90.95725 300.753999 
L 89.079786 300.753999 
z
" clip-path="url(#p59bb5aaa0c)" style="fill: #1f77b4"/>
   </g>
   <g id="patch_25">
    <path d="M 91.426616 302.4 
L 93.304079 302.4 
L 93.304079 300.398107 
L 91.426616 300.398107 
z
" clip-path="url(#p59bb5aaa0c)" style="fill: #1f77b4"/>
   </g>
   <g id="patch_26">
    <path d="M 93.773445 302.4 
L 95.650909 302.4 
L 95.650909 300.442593 
L 93.773445 300.442593 
z
" clip-path="url(#p59bb5aaa0c)" style="fill: #1f77b4"/>
   </g>
   <g id="patch_27">
    <path d="M 96.120275 302.4 
L 97.997739 302.4 
L 97.997739 300.403576 
L 96.120275 300.403576 
z
" clip-path="url(#p59bb5aaa0c)" style="fill: #1f77b4"/>
   </g>
   <g id="patch_28">
    <path d="M 98.467105 302.4 
L 100.344568 302.4 
L 100.344568 300.798485 
L 98.467105 300.798485 
z
" clip-path="url(#p59bb5aaa0c)" style="fill: #1f77b4"/>
   </g>
   <g id="patch_29">
    <path d="M 100.813934 302.4 
L 102.691398 302.4 
L 102.691398 301.332323 
L 100.813934 301.332323 
z
" clip-path="url(#p59bb5aaa0c)" style="fill: #1f77b4"/>
   </g>
   <g id="patch_30">
    <path d="M 103.160764 302.4 
L 105.038228 302.4 
L 105.038228 300.576053 
L 103.160764 300.576053 
z
" clip-path="url(#p59bb5aaa0c)" style="fill: #1f77b4"/>
   </g>
   <g id="patch_31">
    <path d="M 105.507594 302.4 
L 107.385057 302.4 
L 107.385057 300.447941 
L 105.507594 300.447941 
z
" clip-path="url(#p59bb5aaa0c)" style="fill: #1f77b4"/>
   </g>
   <g id="patch_32">
    <path d="M 107.854423 302.4 
L 109.731887 302.4 
L 109.731887 300.531566 
L 107.854423 300.531566 
z
" clip-path="url(#p59bb5aaa0c)" style="fill: #1f77b4"/>
   </g>
   <g id="patch_33">
    <path d="M 110.201253 302.4 
L 112.078717 302.4 
L 112.078717 300.042214 
L 110.201253 300.042214 
z
" clip-path="url(#p59bb5aaa0c)" style="fill: #1f77b4"/>
   </g>
   <g id="patch_34">
    <path d="M 112.548083 302.4 
L 114.425546 302.4 
L 114.425546 300.175674 
L 112.548083 300.175674 
z
" clip-path="url(#p59bb5aaa0c)" style="fill: #1f77b4"/>
   </g>
   <g id="patch_35">
    <path d="M 114.894912 302.4 
L 116.772376 302.4 
L 116.772376 298.274057 
L 114.894912 298.274057 
z
" clip-path="url(#p59bb5aaa0c)" style="fill: #1f77b4"/>
   </g>
   <g id="patch_36">
    <path d="M 117.241742 302.4 
L 119.119206 302.4 
L 119.119206 297.106104 
L 117.241742 297.106104 
z
" clip-path="url(#p59bb5aaa0c)" style="fill: #1f77b4"/>
   </g>
   <g id="patch_37">
    <path d="M 119.588571 302.4 
L 121.466035 302.4 
L 121.466035 296.750212 
L 119.588571 296.750212 
z
" clip-path="url(#p59bb5aaa0c)" style="fill: #1f77b4"/>
   </g>
   <g id="patch_38">
    <path d="M 121.935401 302.4 
L 123.812865 302.4 
L 123.812865 294.125507 
L 121.935401 294.125507 
z
" clip-path="url(#p59bb5aaa0c)" style="fill: #1f77b4"/>
   </g>
   <g id="patch_39">
    <path d="M 124.282231 302.4 
L 126.159694 302.4 
L 126.159694 292.772801 
L 124.282231 292.772801 
z
" clip-path="url(#p59bb5aaa0c)" style="fill: #1f77b4"/>
   </g>
   <g id="patch_40">
    <path d="M 126.62906 302.4 
L 128.506524 302.4 
L 128.506524 292.079127 
L 126.62906 292.079127 
z
" clip-path="url(#p59bb5aaa0c)" style="fill: #1f77b4"/>
   </g>
   <g id="patch_41">
    <path d="M 128.97589 302.4 
L 130.853354 302.4 
L 130.853354 291.500802 
L 128.97589 291.500802 
z
" clip-path="url(#p59bb5aaa0c)" style="fill: #1f77b4"/>
   </g>
   <g id="patch_42">
    <path d="M 131.32272 302.4 
L 133.200183 302.4 
L 133.200183 290.789018 
L 131.32272 290.789018 
z
" clip-path="url(#p59bb5aaa0c)" style="fill: #1f77b4"/>
   </g>
   <g id="patch_43">
    <path d="M 133.669549 302.4 
L 135.547013 302.4 
L 135.547013 292.151691 
L 133.669549 292.151691 
z
" clip-path="url(#p59bb5aaa0c)" style="fill: #1f77b4"/>
   </g>
   <g id="patch_44">
    <path d="M 136.016379 302.4 
L 137.893843 302.4 
L 137.893843 292.03464 
L 136.016379 292.03464 
z
" clip-path="url(#p59bb5aaa0c)" style="fill: #1f77b4"/>
   </g>
   <g id="patch_45">
    <path d="M 138.363209 302.4 
L 140.240672 302.4 
L 140.240672 289.276476 
L 138.363209 289.276476 
z
" clip-path="url(#p59bb5aaa0c)" style="fill: #1f77b4"/>
   </g>
   <g id="patch_46">
    <path d="M 140.710038 302.4 
L 142.587502 302.4 
L 142.587502 291.767721 
L 140.710038 291.767721 
z
" clip-path="url(#p59bb5aaa0c)" style="fill: #1f77b4"/>
   </g>
   <g id="patch_47">
    <path d="M 143.056868 302.4 
L 144.934332 302.4 
L 144.934332 292.062961 
L 143.056868 292.062961 
z
" clip-path="url(#p59bb5aaa0c)" style="fill: #1f77b4"/>
   </g>
   <g id="patch_48">
    <path d="M 145.403697 302.4 
L 147.281161 302.4 
L 147.281161 291.545289 
L 145.403697 291.545289 
z
" clip-path="url(#p59bb5aaa0c)" style="fill: #1f77b4"/>
   </g>
   <g id="patch_49">
    <path d="M 147.750527 302.4 
L 149.627991 302.4 
L 149.627991 291.634262 
L 147.750527 291.634262 
z
" clip-path="url(#p59bb5aaa0c)" style="fill: #1f77b4"/>
   </g>
   <g id="patch_50">
    <path d="M 150.097357 302.4 
L 151.97482 302.4 
L 151.97482 292.479506 
L 150.097357 292.479506 
z
" clip-path="url(#p59bb5aaa0c)" style="fill: #1f77b4"/>
   </g>
   <g id="patch_51">
    <path d="M 152.444186 302.4 
L 154.32165 302.4 
L 154.32165 292.639706 
L 152.444186 292.639706 
z
" clip-path="url(#p59bb5aaa0c)" style="fill: #1f77b4"/>
   </g>
   <g id="patch_52">
    <path d="M 154.791016 302.4 
L 156.66848 302.4 
L 156.66848 294.169994 
L 154.791016 294.169994 
z
" clip-path="url(#p59bb5aaa0c)" style="fill: #1f77b4"/>
   </g>
   <g id="patch_53">
    <path d="M 157.137846 302.4 
L 159.015309 302.4 
L 159.015309 295.059724 
L 157.137846 295.059724 
z
" clip-path="url(#p59bb5aaa0c)" style="fill: #1f77b4"/>
   </g>
   <g id="patch_54">
    <path d="M 159.484675 302.4 
L 161.362139 302.4 
L 161.362139 294.881778 
L 159.484675 294.881778 
z
" clip-path="url(#p59bb5aaa0c)" style="fill: #1f77b4"/>
   </g>
   <g id="patch_55">
    <path d="M 161.831505 302.4 
L 163.708969 302.4 
L 163.708969 293.6601 
L 161.831505 293.6601 
z
" clip-path="url(#p59bb5aaa0c)" style="fill: #1f77b4"/>
   </g>
   <g id="patch_56">
    <path d="M 164.178335 302.4 
L 166.055798 302.4 
L 166.055798 295.415616 
L 164.178335 295.415616 
z
" clip-path="url(#p59bb5aaa0c)" style="fill: #1f77b4"/>
   </g>
   <g id="patch_57">
    <path d="M 166.525164 302.4 
L 168.402628 302.4 
L 168.402628 295.549076 
L 166.525164 295.549076 
z
" clip-path="url(#p59bb5aaa0c)" style="fill: #1f77b4"/>
   </g>
   <g id="patch_58">
    <path d="M 168.871994 302.4 
L 170.749458 302.4 
L 170.749458 295.23767 
L 168.871994 295.23767 
z
" clip-path="url(#p59bb5aaa0c)" style="fill: #1f77b4"/>
   </g>
   <g id="patch_59">
    <path d="M 171.218824 302.4 
L 173.096287 302.4 
L 173.096287 294.45867 
L 171.218824 294.45867 
z
" clip-path="url(#p59bb5aaa0c)" style="fill: #1f77b4"/>
   </g>
   <g id="patch_60">
    <path d="M 173.565653 302.4 
L 175.443117 302.4 
L 175.443117 295.860481 
L 173.565653 295.860481 
z
" clip-path="url(#p59bb5aaa0c)" style="fill: #1f77b4"/>
   </g>
   <g id="patch_61">
    <path d="M 175.912483 302.4 
L 177.789947 302.4 
L 177.789947 295.148697 
L 175.912483 295.148697 
z
" clip-path="url(#p59bb5aaa0c)" style="fill: #1f77b4"/>
   </g>
   <g id="patch_62">
    <path d="M 178.259312 302.4 
L 180.136776 302.4 
L 180.136776 295.015237 
L 178.259312 295.015237 
z
" clip-path="url(#p59bb5aaa0c)" style="fill: #1f77b4"/>
   </g>
   <g id="patch_63">
    <path d="M 180.606142 302.4 
L 182.483606 302.4 
L 182.483606 295.745254 
L 180.606142 295.745254 
z
" clip-path="url(#p59bb5aaa0c)" style="fill: #1f77b4"/>
   </g>
   <g id="patch_64">
    <path d="M 182.952972 302.4 
L 184.830435 302.4 
L 184.830435 295.282157 
L 182.952972 295.282157 
z
" clip-path="url(#p59bb5aaa0c)" style="fill: #1f77b4"/>
   </g>
   <g id="patch_65">
    <path d="M 185.299801 302.4 
L 187.177265 302.4 
L 187.177265 294.614859 
L 185.299801 294.614859 
z
" clip-path="url(#p59bb5aaa0c)" style="fill: #1f77b4"/>
   </g>
   <g id="patch_66">
    <path d="M 187.646631 302.4 
L 189.524095 302.4 
L 189.524095 295.549076 
L 187.646631 295.549076 
z
" clip-path="url(#p59bb5aaa0c)" style="fill: #1f77b4"/>
   </g>
   <g id="patch_67">
    <path d="M 189.993461 302.4 
L 191.870924 302.4 
L 191.870924 295.479064 
L 189.993461 295.479064 
z
" clip-path="url(#p59bb5aaa0c)" style="fill: #1f77b4"/>
   </g>
   <g id="patch_68">
    <path d="M 192.34029 302.4 
L 194.217754 302.4 
L 194.217754 295.148697 
L 192.34029 295.148697 
z
" clip-path="url(#p59bb5aaa0c)" style="fill: #1f77b4"/>
   </g>
   <g id="patch_69">
    <path d="M 194.68712 302.4 
L 196.564584 302.4 
L 196.564584 293.413723 
L 194.68712 293.413723 
z
" clip-path="url(#p59bb5aaa0c)" style="fill: #1f77b4"/>
   </g>
   <g id="patch_70">
    <path d="M 197.03395 302.4 
L 198.911413 302.4 
L 198.911413 290.299666 
L 197.03395 290.299666 
z
" clip-path="url(#p59bb5aaa0c)" style="fill: #1f77b4"/>
   </g>
   <g id="patch_71">
    <path d="M 199.380779 302.4 
L 201.258243 302.4 
L 201.258243 290.155267 
L 199.380779 290.155267 
z
" clip-path="url(#p59bb5aaa0c)" style="fill: #1f77b4"/>
   </g>
   <g id="patch_72">
    <path d="M 201.727609 302.4 
L 203.605073 302.4 
L 203.605073 289.676855 
L 201.727609 289.676855 
z
" clip-path="url(#p59bb5aaa0c)" style="fill: #1f77b4"/>
   </g>
   <g id="patch_73">
    <path d="M 204.074439 302.4 
L 205.951902 302.4 
L 205.951902 287.897394 
L 204.074439 287.897394 
z
" clip-path="url(#p59bb5aaa0c)" style="fill: #1f77b4"/>
   </g>
   <g id="patch_74">
    <path d="M 206.421268 302.4 
L 208.298732 302.4 
L 208.298732 289.054044 
L 206.421268 289.054044 
z
" clip-path="url(#p59bb5aaa0c)" style="fill: #1f77b4"/>
   </g>
   <g id="patch_75">
    <path d="M 208.768098 302.4 
L 210.645561 302.4 
L 210.645561 288.779953 
L 208.768098 288.779953 
z
" clip-path="url(#p59bb5aaa0c)" style="fill: #1f77b4"/>
   </g>
   <g id="patch_76">
    <path d="M 211.114927 302.4 
L 212.992391 302.4 
L 212.992391 289.365449 
L 211.114927 289.365449 
z
" clip-path="url(#p59bb5aaa0c)" style="fill: #1f77b4"/>
   </g>
   <g id="patch_77">
    <path d="M 213.461757 302.4 
L 215.339221 302.4 
L 215.339221 286.696258 
L 213.461757 286.696258 
z
" clip-path="url(#p59bb5aaa0c)" style="fill: #1f77b4"/>
   </g>
   <g id="patch_78">
    <path d="M 215.808587 302.4 
L 217.68605 302.4 
L 217.68605 288.253286 
L 215.808587 288.253286 
z
" clip-path="url(#p59bb5aaa0c)" style="fill: #1f77b4"/>
   </g>
   <g id="patch_79">
    <path d="M 218.155416 302.4 
L 220.03288 302.4 
L 220.03288 288.158843 
L 218.155416 288.158843 
z
" clip-path="url(#p59bb5aaa0c)" style="fill: #1f77b4"/>
   </g>
   <g id="patch_80">
    <path d="M 220.502246 302.4 
L 222.37971 302.4 
L 222.37971 288.653665 
L 220.502246 288.653665 
z
" clip-path="url(#p59bb5aaa0c)" style="fill: #1f77b4"/>
   </g>
   <g id="patch_81">
    <path d="M 222.849076 302.4 
L 224.726539 302.4 
L 224.726539 287.852907 
L 222.849076 287.852907 
z
" clip-path="url(#p59bb5aaa0c)" style="fill: #1f77b4"/>
   </g>
   <g id="patch_82">
    <path d="M 225.195905 302.4 
L 227.073369 302.4 
L 227.073369 288.164313 
L 225.195905 288.164313 
z
" clip-path="url(#p59bb5aaa0c)" style="fill: #1f77b4"/>
   </g>
   <g id="patch_83">
    <path d="M 227.542735 302.4 
L 229.420199 302.4 
L 229.420199 287.715194 
L 227.542735 287.715194 
z
" clip-path="url(#p59bb5aaa0c)" style="fill: #1f77b4"/>
   </g>
   <g id="patch_84">
    <path d="M 229.889565 302.4 
L 231.767028 302.4 
L 231.767028 288.030854 
L 229.889565 288.030854 
z
" clip-path="url(#p59bb5aaa0c)" style="fill: #1f77b4"/>
   </g>
   <g id="patch_85">
    <path d="M 232.236394 302.4 
L 234.113858 302.4 
L 234.113858 285.228203 
L 232.236394 285.228203 
z
" clip-path="url(#p59bb5aaa0c)" style="fill: #1f77b4"/>
   </g>
   <g id="patch_86">
    <path d="M 234.583224 302.4 
L 236.460688 302.4 
L 236.460688 287.674961 
L 234.583224 287.674961 
z
" clip-path="url(#p59bb5aaa0c)" style="fill: #1f77b4"/>
   </g>
   <g id="patch_87">
    <path d="M 236.930053 302.4 
L 238.807517 302.4 
L 238.807517 288.336303 
L 236.930053 288.336303 
z
" clip-path="url(#p59bb5aaa0c)" style="fill: #1f77b4"/>
   </g>
   <g id="patch_88">
    <path d="M 239.276883 302.4 
L 241.154347 302.4 
L 241.154347 289.454422 
L 239.276883 289.454422 
z
" clip-path="url(#p59bb5aaa0c)" style="fill: #1f77b4"/>
   </g>
   <g id="patch_89">
    <path d="M 241.623713 302.4 
L 243.501176 302.4 
L 243.501176 292.835398 
L 241.623713 292.835398 
z
" clip-path="url(#p59bb5aaa0c)" style="fill: #1f77b4"/>
   </g>
   <g id="patch_90">
    <path d="M 243.970542 302.4 
L 245.848006 302.4 
L 245.848006 293.413723 
L 243.970542 293.413723 
z
" clip-path="url(#p59bb5aaa0c)" style="fill: #1f77b4"/>
   </g>
   <g id="patch_91">
    <path d="M 246.317372 302.4 
L 248.194836 302.4 
L 248.194836 293.038991 
L 246.317372 293.038991 
z
" clip-path="url(#p59bb5aaa0c)" style="fill: #1f77b4"/>
   </g>
   <g id="patch_92">
    <path d="M 248.664202 302.4 
L 250.541665 302.4 
L 250.541665 292.346046 
L 248.664202 292.346046 
z
" clip-path="url(#p59bb5aaa0c)" style="fill: #1f77b4"/>
   </g>
   <g id="patch_93">
    <path d="M 251.011031 302.4 
L 252.888495 302.4 
L 252.888495 292.123614 
L 251.011031 292.123614 
z
" clip-path="url(#p59bb5aaa0c)" style="fill: #1f77b4"/>
   </g>
   <g id="patch_94">
    <path d="M 253.357861 302.4 
L 255.235325 302.4 
L 255.235325 293.280263 
L 253.357861 293.280263 
z
" clip-path="url(#p59bb5aaa0c)" style="fill: #1f77b4"/>
   </g>
   <g id="patch_95">
    <path d="M 255.704691 302.4 
L 257.582154 302.4 
L 257.582154 293.30518 
L 255.704691 293.30518 
z
" clip-path="url(#p59bb5aaa0c)" style="fill: #1f77b4"/>
   </g>
   <g id="patch_96">
    <path d="M 258.05152 302.4 
L 259.928984 302.4 
L 259.928984 293.235777 
L 258.05152 293.235777 
z
" clip-path="url(#p59bb5aaa0c)" style="fill: #1f77b4"/>
   </g>
   <g id="patch_97">
    <path d="M 260.39835 302.4 
L 262.275814 302.4 
L 262.275814 293.235777 
L 260.39835 293.235777 
z
" clip-path="url(#p59bb5aaa0c)" style="fill: #1f77b4"/>
   </g>
   <g id="patch_98">
    <path d="M 262.74518 302.4 
L 264.622643 302.4 
L 264.622643 292.30156 
L 262.74518 292.30156 
z
" clip-path="url(#p59bb5aaa0c)" style="fill: #1f77b4"/>
   </g>
   <g id="patch_99">
    <path d="M 265.092009 302.4 
L 266.969473 302.4 
L 266.969473 293.48264 
L 265.092009 293.48264 
z
" clip-path="url(#p59bb5aaa0c)" style="fill: #1f77b4"/>
   </g>
   <g id="patch_100">
    <path d="M 267.438839 302.4 
L 269.316303 302.4 
L 269.316303 292.30156 
L 267.438839 292.30156 
z
" clip-path="url(#p59bb5aaa0c)" style="fill: #1f77b4"/>
   </g>
   <g id="patch_101">
    <path d="M 269.785668 302.4 
L 271.663132 302.4 
L 271.663132 292.079127 
L 269.785668 292.079127 
z
" clip-path="url(#p59bb5aaa0c)" style="fill: #1f77b4"/>
   </g>
   <g id="patch_102">
    <path d="M 272.132498 302.4 
L 274.009962 302.4 
L 274.009962 288.653665 
L 272.132498 288.653665 
z
" clip-path="url(#p59bb5aaa0c)" style="fill: #1f77b4"/>
   </g>
   <g id="patch_103">
    <path d="M 274.479328 302.4 
L 276.356791 302.4 
L 276.356791 289.179238 
L 274.479328 289.179238 
z
" clip-path="url(#p59bb5aaa0c)" style="fill: #1f77b4"/>
   </g>
   <g id="patch_104">
    <path d="M 276.826157 302.4 
L 278.703621 302.4 
L 278.703621 289.09853 
L 276.826157 289.09853 
z
" clip-path="url(#p59bb5aaa0c)" style="fill: #1f77b4"/>
   </g>
   <g id="patch_105">
    <path d="M 279.172987 302.4 
L 281.050451 302.4 
L 281.050451 284.160526 
L 279.172987 284.160526 
z
" clip-path="url(#p59bb5aaa0c)" style="fill: #1f77b4"/>
   </g>
   <g id="patch_106">
    <path d="M 281.519817 302.4 
L 283.39728 302.4 
L 283.39728 286.918691 
L 281.519817 286.918691 
z
" clip-path="url(#p59bb5aaa0c)" style="fill: #1f77b4"/>
   </g>
   <g id="patch_107">
    <path d="M 283.866646 302.4 
L 285.74411 302.4 
L 285.74411 283.988536 
L 283.866646 283.988536 
z
" clip-path="url(#p59bb5aaa0c)" style="fill: #1f77b4"/>
   </g>
   <g id="patch_108">
    <path d="M 286.213476 302.4 
L 288.09094 302.4 
L 288.09094 282.114146 
L 286.213476 282.114146 
z
" clip-path="url(#p59bb5aaa0c)" style="fill: #1f77b4"/>
   </g>
   <g id="patch_109">
    <path d="M 288.560306 302.4 
L 290.437769 302.4 
L 290.437769 267.433594 
L 288.560306 267.433594 
z
" clip-path="url(#p59bb5aaa0c)" style="fill: #1f77b4"/>
   </g>
   <g id="patch_110">
    <path d="M 290.907135 302.4 
L 292.784599 302.4 
L 292.784599 265.031322 
L 290.907135 265.031322 
z
" clip-path="url(#p59bb5aaa0c)" style="fill: #1f77b4"/>
   </g>
   <g id="patch_111">
    <path d="M 293.253965 302.4 
L 295.131429 302.4 
L 295.131429 262.737714 
L 293.253965 262.737714 
z
" clip-path="url(#p59bb5aaa0c)" style="fill: #1f77b4"/>
   </g>
   <g id="patch_112">
    <path d="M 295.600794 302.4 
L 297.478258 302.4 
L 297.478258 259.826399 
L 295.600794 259.826399 
z
" clip-path="url(#p59bb5aaa0c)" style="fill: #1f77b4"/>
   </g>
   <g id="patch_113">
    <path d="M 297.947624 302.4 
L 299.825088 302.4 
L 299.825088 258.224884 
L 297.947624 258.224884 
z
" clip-path="url(#p59bb5aaa0c)" style="fill: #1f77b4"/>
   </g>
   <g id="patch_114">
    <path d="M 300.294454 302.4 
L 302.171917 302.4 
L 302.171917 258.447317 
L 300.294454 258.447317 
z
" clip-path="url(#p59bb5aaa0c)" style="fill: #1f77b4"/>
   </g>
   <g id="patch_115">
    <path d="M 302.641283 302.4 
L 304.518747 302.4 
L 304.518747 256.792807 
L 302.641283 256.792807 
z
" clip-path="url(#p59bb5aaa0c)" style="fill: #1f77b4"/>
   </g>
   <g id="patch_116">
    <path d="M 304.988113 302.4 
L 306.865577 302.4 
L 306.865577 254.710449 
L 304.988113 254.710449 
z
" clip-path="url(#p59bb5aaa0c)" style="fill: #1f77b4"/>
   </g>
   <g id="patch_117">
    <path d="M 307.334943 302.4 
L 309.212406 302.4 
L 309.212406 260.226778 
L 307.334943 260.226778 
z
" clip-path="url(#p59bb5aaa0c)" style="fill: #1f77b4"/>
   </g>
   <g id="patch_118">
    <path d="M 309.681772 302.4 
L 311.559236 302.4 
L 311.559236 266.855269 
L 309.681772 266.855269 
z
" clip-path="url(#p59bb5aaa0c)" style="fill: #1f77b4"/>
   </g>
   <g id="patch_119">
    <path d="M 312.028602 302.4 
L 313.906066 302.4 
L 313.906066 265.621437 
L 312.028602 265.621437 
z
" clip-path="url(#p59bb5aaa0c)" style="fill: #1f77b4"/>
   </g>
   <g id="patch_120">
    <path d="M 314.375432 302.4 
L 316.252895 302.4 
L 316.252895 260.44921 
L 314.375432 260.44921 
z
" clip-path="url(#p59bb5aaa0c)" style="fill: #1f77b4"/>
   </g>
   <g id="patch_121">
    <path d="M 316.722261 302.4 
L 318.599725 302.4 
L 318.599725 249.861418 
L 316.722261 249.861418 
z
" clip-path="url(#p59bb5aaa0c)" style="fill: #1f77b4"/>
   </g>
   <g id="patch_122">
    <path d="M 319.069091 302.4 
L 320.946555 302.4 
L 320.946555 255.555693 
L 319.069091 255.555693 
z
" clip-path="url(#p59bb5aaa0c)" style="fill: #1f77b4"/>
   </g>
   <g id="patch_123">
    <path d="M 321.415921 302.4 
L 323.293384 302.4 
L 323.293384 244.281885 
L 321.415921 244.281885 
z
" clip-path="url(#p59bb5aaa0c)" style="fill: #1f77b4"/>
   </g>
   <g id="patch_124">
    <path d="M 323.76275 302.4 
L 325.640214 302.4 
L 325.640214 240.830654 
L 323.76275 240.830654 
z
" clip-path="url(#p59bb5aaa0c)" style="fill: #1f77b4"/>
   </g>
   <g id="patch_125">
    <path d="M 326.10958 302.4 
L 327.987044 302.4 
L 327.987044 239.140166 
L 326.10958 239.140166 
z
" clip-path="url(#p59bb5aaa0c)" style="fill: #1f77b4"/>
   </g>
   <g id="patch_126">
    <path d="M 328.456409 302.4 
L 330.333873 302.4 
L 330.333873 234.824974 
L 328.456409 234.824974 
z
" clip-path="url(#p59bb5aaa0c)" style="fill: #1f77b4"/>
   </g>
   <g id="patch_127">
    <path d="M 330.803239 302.4 
L 332.680703 302.4 
L 332.680703 231.904057 
L 330.803239 231.904057 
z
" clip-path="url(#p59bb5aaa0c)" style="fill: #1f77b4"/>
   </g>
   <g id="patch_128">
    <path d="M 333.150069 302.4 
L 335.027532 302.4 
L 335.027532 224.014749 
L 333.150069 224.014749 
z
" clip-path="url(#p59bb5aaa0c)" style="fill: #1f77b4"/>
   </g>
   <g id="patch_129">
    <path d="M 335.496898 302.4 
L 337.374362 302.4 
L 337.374362 216.185121 
L 335.496898 216.185121 
z
" clip-path="url(#p59bb5aaa0c)" style="fill: #1f77b4"/>
   </g>
   <g id="patch_130">
    <path d="M 337.843728 302.4 
L 339.721192 302.4 
L 339.721192 207.154357 
L 337.843728 207.154357 
z
" clip-path="url(#p59bb5aaa0c)" style="fill: #1f77b4"/>
   </g>
   <g id="patch_131">
    <path d="M 340.190558 302.4 
L 342.068021 302.4 
L 342.068021 197.432472 
L 340.190558 197.432472 
z
" clip-path="url(#p59bb5aaa0c)" style="fill: #1f77b4"/>
   </g>
   <g id="patch_132">
    <path d="M 342.537387 302.4 
L 344.414851 302.4 
L 344.414851 195.187483 
L 342.537387 195.187483 
z
" clip-path="url(#p59bb5aaa0c)" style="fill: #1f77b4"/>
   </g>
   <g id="patch_133">
    <path d="M 344.884217 302.4 
L 346.761681 302.4 
L 346.761681 174.323305 
L 344.884217 174.323305 
z
" clip-path="url(#p59bb5aaa0c)" style="fill: #1f77b4"/>
   </g>
   <g id="patch_134">
    <path d="M 347.231047 302.4 
L 349.10851 302.4 
L 349.10851 152.747342 
L 347.231047 152.747342 
z
" clip-path="url(#p59bb5aaa0c)" style="fill: #1f77b4"/>
   </g>
   <g id="patch_135">
    <path d="M 349.577876 302.4 
L 351.45534 302.4 
L 351.45534 156.971616 
L 349.577876 156.971616 
z
" clip-path="url(#p59bb5aaa0c)" style="fill: #1f77b4"/>
   </g>
   <g id="patch_136">
    <path d="M 351.924706 302.4 
L 353.80217 302.4 
L 353.80217 149.900204 
L 351.924706 149.900204 
z
" clip-path="url(#p59bb5aaa0c)" style="fill: #1f77b4"/>
   </g>
   <g id="patch_137">
    <path d="M 354.271536 302.4 
L 356.148999 302.4 
L 356.148999 137.532951 
L 354.271536 137.532951 
z
" clip-path="url(#p59bb5aaa0c)" style="fill: #1f77b4"/>
   </g>
   <g id="patch_138">
    <path d="M 356.618365 302.4 
L 358.495829 302.4 
L 358.495829 135.575544 
L 356.618365 135.575544 
z
" clip-path="url(#p59bb5aaa0c)" style="fill: #1f77b4"/>
   </g>
   <g id="patch_139">
    <path d="M 358.965195 302.4 
L 360.842659 302.4 
L 360.842659 135.898254 
L 358.965195 135.898254 
z
" clip-path="url(#p59bb5aaa0c)" style="fill: #1f77b4"/>
   </g>
   <g id="patch_140">
    <path d="M 361.312024 302.4 
L 363.189488 302.4 
L 363.189488 140.380089 
L 361.312024 140.380089 
z
" clip-path="url(#p59bb5aaa0c)" style="fill: #1f77b4"/>
   </g>
   <g id="patch_141">
    <path d="M 363.658854 302.4 
L 365.536318 302.4 
L 365.536318 124.053535 
L 363.658854 124.053535 
z
" clip-path="url(#p59bb5aaa0c)" style="fill: #1f77b4"/>
   </g>
   <g id="patch_142">
    <path d="M 366.005684 302.4 
L 367.883147 302.4 
L 367.883147 84.460531 
L 366.005684 84.460531 
z
" clip-path="url(#p59bb5aaa0c)" style="fill: #1f77b4"/>
   </g>
   <g id="patch_143">
    <path d="M 368.352513 302.4 
L 370.229977 302.4 
L 370.229977 67.17691 
L 368.352513 67.17691 
z
" clip-path="url(#p59bb5aaa0c)" style="fill: #1f77b4"/>
   </g>
   <g id="patch_144">
    <path d="M 370.699343 302.4 
L 372.576807 302.4 
L 372.576807 47.314286 
L 370.699343 47.314286 
z
" clip-path="url(#p59bb5aaa0c)" style="fill: #1f77b4"/>
   </g>
   <g id="patch_145">
    <path d="M 373.046173 302.4 
L 374.923636 302.4 
L 374.923636 55.099427 
L 373.046173 55.099427 
z
" clip-path="url(#p59bb5aaa0c)" style="fill: #1f77b4"/>
   </g>
   <g id="matplotlib.axis_1">
    <g id="xtick_1">
     <g id="line2d_1">
      <defs>
       <path id="m6b5337d30b" d="M 0 0 
L 0 3.5 
" style="stroke: #000000; stroke-width: 0.8"/>
      </defs>
      <g>
       <use xlink:href="#m6b5337d30b" x="40.735095" y="302.4" style="stroke: #000000; stroke-width: 0.8"/>
      </g>
     </g>
     <g id="text_1">
      <!-- 1880 -->
      <g transform="translate(28.010095 316.998437) scale(0.1 -0.1)">
       <defs>
        <path id="DejaVuSans-31" d="M 794 531 
L 1825 531 
L 1825 4091 
L 703 3866 
L 703 4441 
L 1819 4666 
L 2450 4666 
L 2450 531 
L 3481 531 
L 3481 0 
L 794 0 
L 794 531 
z
" transform="scale(0.015625)"/>
        <path id="DejaVuSans-38" d="M 2034 2216 
Q 1584 2216 1326 1975 
Q 1069 1734 1069 1313 
Q 1069 891 1326 650 
Q 1584 409 2034 409 
Q 2484 409 2743 651 
Q 3003 894 3003 1313 
Q 3003 1734 2745 1975 
Q 2488 2216 2034 2216 
z
M 1403 2484 
Q 997 2584 770 2862 
Q 544 3141 544 3541 
Q 544 4100 942 4425 
Q 1341 4750 2034 4750 
Q 2731 4750 3128 4425 
Q 3525 4100 3525 3541 
Q 3525 3141 3298 2862 
Q 3072 2584 2669 2484 
Q 3125 2378 3379 2068 
Q 3634 1759 3634 1313 
Q 3634 634 3220 271 
Q 2806 -91 2034 -91 
Q 1263 -91 848 271 
Q 434 634 434 1313 
Q 434 1759 690 2068 
Q 947 2378 1403 2484 
z
M 1172 3481 
Q 1172 3119 1398 2916 
Q 1625 2713 2034 2713 
Q 2441 2713 2670 2916 
Q 2900 3119 2900 3481 
Q 2900 3844 2670 4047 
Q 2441 4250 2034 4250 
Q 1625 4250 1398 4047 
Q 1172 3844 1172 3481 
z
" transform="scale(0.015625)"/>
        <path id="DejaVuSans-30" d="M 2034 4250 
Q 1547 4250 1301 3770 
Q 1056 3291 1056 2328 
Q 1056 1369 1301 889 
Q 1547 409 2034 409 
Q 2525 409 2770 889 
Q 3016 1369 3016 2328 
Q 3016 3291 2770 3770 
Q 2525 4250 2034 4250 
z
M 2034 4750 
Q 2819 4750 3233 4129 
Q 3647 3509 3647 2328 
Q 3647 1150 3233 529 
Q 2819 -91 2034 -91 
Q 1250 -91 836 529 
Q 422 1150 422 2328 
Q 422 3509 836 4129 
Q 1250 4750 2034 4750 
z
" transform="scale(0.015625)"/>
       </defs>
       <use xlink:href="#DejaVuSans-31"/>
       <use xlink:href="#DejaVuSans-38" x="63.623047"/>
       <use xlink:href="#DejaVuSans-38" x="127.246094"/>
       <use xlink:href="#DejaVuSans-30" x="190.869141"/>
      </g>
     </g>
    </g>
    <g id="xtick_2">
     <g id="line2d_2">
      <g>
       <use xlink:href="#m6b5337d30b" x="87.671688" y="302.4" style="stroke: #000000; stroke-width: 0.8"/>
      </g>
     </g>
     <g id="text_2">
      <!-- 1900 -->
      <g transform="translate(74.946688 316.998437) scale(0.1 -0.1)">
       <defs>
        <path id="DejaVuSans-39" d="M 703 97 
L 703 672 
Q 941 559 1184 500 
Q 1428 441 1663 441 
Q 2288 441 2617 861 
Q 2947 1281 2994 2138 
Q 2813 1869 2534 1725 
Q 2256 1581 1919 1581 
Q 1219 1581 811 2004 
Q 403 2428 403 3163 
Q 403 3881 828 4315 
Q 1253 4750 1959 4750 
Q 2769 4750 3195 4129 
Q 3622 3509 3622 2328 
Q 3622 1225 3098 567 
Q 2575 -91 1691 -91 
Q 1453 -91 1209 -44 
Q 966 3 703 97 
z
M 1959 2075 
Q 2384 2075 2632 2365 
Q 2881 2656 2881 3163 
Q 2881 3666 2632 3958 
Q 2384 4250 1959 4250 
Q 1534 4250 1286 3958 
Q 1038 3666 1038 3163 
Q 1038 2656 1286 2365 
Q 1534 2075 1959 2075 
z
" transform="scale(0.015625)"/>
       </defs>
       <use xlink:href="#DejaVuSans-31"/>
       <use xlink:href="#DejaVuSans-39" x="63.623047"/>
       <use xlink:href="#DejaVuSans-30" x="127.246094"/>
       <use xlink:href="#DejaVuSans-30" x="190.869141"/>
      </g>
     </g>
    </g>
    <g id="xtick_3">
     <g id="line2d_3">
      <g>
       <use xlink:href="#m6b5337d30b" x="134.608281" y="302.4" style="stroke: #000000; stroke-width: 0.8"/>
      </g>
     </g>
     <g id="text_3">
      <!-- 1920 -->
      <g transform="translate(121.883281 316.998437) scale(0.1 -0.1)">
       <defs>
        <path id="DejaVuSans-32" d="M 1228 531 
L 3431 531 
L 3431 0 
L 469 0 
L 469 531 
Q 828 903 1448 1529 
Q 2069 2156 2228 2338 
Q 2531 2678 2651 2914 
Q 2772 3150 2772 3378 
Q 2772 3750 2511 3984 
Q 2250 4219 1831 4219 
Q 1534 4219 1204 4116 
Q 875 4013 500 3803 
L 500 4441 
Q 881 4594 1212 4672 
Q 1544 4750 1819 4750 
Q 2544 4750 2975 4387 
Q 3406 4025 3406 3419 
Q 3406 3131 3298 2873 
Q 3191 2616 2906 2266 
Q 2828 2175 2409 1742 
Q 1991 1309 1228 531 
z
" transform="scale(0.015625)"/>
       </defs>
       <use xlink:href="#DejaVuSans-31"/>
       <use xlink:href="#DejaVuSans-39" x="63.623047"/>
       <use xlink:href="#DejaVuSans-32" x="127.246094"/>
       <use xlink:href="#DejaVuSans-30" x="190.869141"/>
      </g>
     </g>
    </g>
    <g id="xtick_4">
     <g id="line2d_4">
      <g>
       <use xlink:href="#m6b5337d30b" x="181.544874" y="302.4" style="stroke: #000000; stroke-width: 0.8"/>
      </g>
     </g>
     <g id="text_4">
      <!-- 1940 -->
      <g transform="translate(168.819874 316.998437) scale(0.1 -0.1)">
       <defs>
        <path id="DejaVuSans-34" d="M 2419 4116 
L 825 1625 
L 2419 1625 
L 2419 4116 
z
M 2253 4666 
L 3047 4666 
L 3047 1625 
L 3713 1625 
L 3713 1100 
L 3047 1100 
L 3047 0 
L 2419 0 
L 2419 1100 
L 313 1100 
L 313 1709 
L 2253 4666 
z
" transform="scale(0.015625)"/>
       </defs>
       <use xlink:href="#DejaVuSans-31"/>
       <use xlink:href="#DejaVuSans-39" x="63.623047"/>
       <use xlink:href="#DejaVuSans-34" x="127.246094"/>
       <use xlink:href="#DejaVuSans-30" x="190.869141"/>
      </g>
     </g>
    </g>
    <g id="xtick_5">
     <g id="line2d_5">
      <g>
       <use xlink:href="#m6b5337d30b" x="228.481467" y="302.4" style="stroke: #000000; stroke-width: 0.8"/>
      </g>
     </g>
     <g id="text_5">
      <!-- 1960 -->
      <g transform="translate(215.756467 316.998437) scale(0.1 -0.1)">
       <defs>
        <path id="DejaVuSans-36" d="M 2113 2584 
Q 1688 2584 1439 2293 
Q 1191 2003 1191 1497 
Q 1191 994 1439 701 
Q 1688 409 2113 409 
Q 2538 409 2786 701 
Q 3034 994 3034 1497 
Q 3034 2003 2786 2293 
Q 2538 2584 2113 2584 
z
M 3366 4563 
L 3366 3988 
Q 3128 4100 2886 4159 
Q 2644 4219 2406 4219 
Q 1781 4219 1451 3797 
Q 1122 3375 1075 2522 
Q 1259 2794 1537 2939 
Q 1816 3084 2150 3084 
Q 2853 3084 3261 2657 
Q 3669 2231 3669 1497 
Q 3669 778 3244 343 
Q 2819 -91 2113 -91 
Q 1303 -91 875 529 
Q 447 1150 447 2328 
Q 447 3434 972 4092 
Q 1497 4750 2381 4750 
Q 2619 4750 2861 4703 
Q 3103 4656 3366 4563 
z
" transform="scale(0.015625)"/>
       </defs>
       <use xlink:href="#DejaVuSans-31"/>
       <use xlink:href="#DejaVuSans-39" x="63.623047"/>
       <use xlink:href="#DejaVuSans-36" x="127.246094"/>
       <use xlink:href="#DejaVuSans-30" x="190.869141"/>
      </g>
     </g>
    </g>
    <g id="xtick_6">
     <g id="line2d_6">
      <g>
       <use xlink:href="#m6b5337d30b" x="275.41806" y="302.4" style="stroke: #000000; stroke-width: 0.8"/>
      </g>
     </g>
     <g id="text_6">
      <!-- 1980 -->
      <g transform="translate(262.69306 316.998437) scale(0.1 -0.1)">
       <use xlink:href="#DejaVuSans-31"/>
       <use xlink:href="#DejaVuSans-39" x="63.623047"/>
       <use xlink:href="#DejaVuSans-38" x="127.246094"/>
       <use xlink:href="#DejaVuSans-30" x="190.869141"/>
      </g>
     </g>
    </g>
    <g id="xtick_7">
     <g id="line2d_7">
      <g>
       <use xlink:href="#m6b5337d30b" x="322.354652" y="302.4" style="stroke: #000000; stroke-width: 0.8"/>
      </g>
     </g>
     <g id="text_7">
      <!-- 2000 -->
      <g transform="translate(309.629652 316.998437) scale(0.1 -0.1)">
       <use xlink:href="#DejaVuSans-32"/>
       <use xlink:href="#DejaVuSans-30" x="63.623047"/>
       <use xlink:href="#DejaVuSans-30" x="127.246094"/>
       <use xlink:href="#DejaVuSans-30" x="190.869141"/>
      </g>
     </g>
    </g>
    <g id="xtick_8">
     <g id="line2d_8">
      <g>
       <use xlink:href="#m6b5337d30b" x="369.291245" y="302.4" style="stroke: #000000; stroke-width: 0.8"/>
      </g>
     </g>
     <g id="text_8">
      <!-- 2020 -->
      <g transform="translate(356.566245 316.998437) scale(0.1 -0.1)">
       <use xlink:href="#DejaVuSans-32"/>
       <use xlink:href="#DejaVuSans-30" x="63.623047"/>
       <use xlink:href="#DejaVuSans-32" x="127.246094"/>
       <use xlink:href="#DejaVuSans-30" x="190.869141"/>
      </g>
     </g>
    </g>
    <g id="text_9">
     <!-- Year -->
     <g transform="translate(194.655 333.19625) scale(0.12 -0.12)">
      <defs>
       <path id="DejaVuSans-59" d="M -13 4666 
L 666 4666 
L 1959 2747 
L 3244 4666 
L 3922 4666 
L 2272 2222 
L 2272 0 
L 1638 0 
L 1638 2222 
L -13 4666 
z
" transform="scale(0.015625)"/>
       <path id="DejaVuSans-65" d="M 3597 1894 
L 3597 1613 
L 953 1613 
Q 991 1019 1311 708 
Q 1631 397 2203 397 
Q 2534 397 2845 478 
Q 3156 559 3463 722 
L 3463 178 
Q 3153 47 2828 -22 
Q 2503 -91 2169 -91 
Q 1331 -91 842 396 
Q 353 884 353 1716 
Q 353 2575 817 3079 
Q 1281 3584 2069 3584 
Q 2775 3584 3186 3129 
Q 3597 2675 3597 1894 
z
M 3022 2063 
Q 3016 2534 2758 2815 
Q 2500 3097 2075 3097 
Q 1594 3097 1305 2825 
Q 1016 2553 972 2059 
L 3022 2063 
z
" transform="scale(0.015625)"/>
       <path id="DejaVuSans-61" d="M 2194 1759 
Q 1497 1759 1228 1600 
Q 959 1441 959 1056 
Q 959 750 1161 570 
Q 1363 391 1709 391 
Q 2188 391 2477 730 
Q 2766 1069 2766 1631 
L 2766 1759 
L 2194 1759 
z
M 3341 1997 
L 3341 0 
L 2766 0 
L 2766 531 
Q 2569 213 2275 61 
Q 1981 -91 1556 -91 
Q 1019 -91 701 211 
Q 384 513 384 1019 
Q 384 1609 779 1909 
Q 1175 2209 1959 2209 
L 2766 2209 
L 2766 2266 
Q 2766 2663 2505 2880 
Q 2244 3097 1772 3097 
Q 1472 3097 1187 3025 
Q 903 2953 641 2809 
L 641 3341 
Q 956 3463 1253 3523 
Q 1550 3584 1831 3584 
Q 2591 3584 2966 3190 
Q 3341 2797 3341 1997 
z
" transform="scale(0.015625)"/>
       <path id="DejaVuSans-72" d="M 2631 2963 
Q 2534 3019 2420 3045 
Q 2306 3072 2169 3072 
Q 1681 3072 1420 2755 
Q 1159 2438 1159 1844 
L 1159 0 
L 581 0 
L 581 3500 
L 1159 3500 
L 1159 2956 
Q 1341 3275 1631 3429 
Q 1922 3584 2338 3584 
Q 2397 3584 2469 3576 
Q 2541 3569 2628 3553 
L 2631 2963 
z
" transform="scale(0.015625)"/>
      </defs>
      <use xlink:href="#DejaVuSans-59"/>
      <use xlink:href="#DejaVuSans-65" x="47.833984"/>
      <use xlink:href="#DejaVuSans-61" x="109.357422"/>
      <use xlink:href="#DejaVuSans-72" x="170.636719"/>
     </g>
    </g>
   </g>
   <g id="matplotlib.axis_2">
    <g id="ytick_1">
     <g id="line2d_9">
      <defs>
       <path id="m2fb34f8583" d="M 0 0 
L 3.5 0 
" style="stroke: #000000; stroke-width: 0.8"/>
      </defs>
      <g>
       <use xlink:href="#m2fb34f8583" x="391.68" y="302.4" style="stroke: #000000; stroke-width: 0.8"/>
      </g>
     </g>
     <g id="text_10">
      <!-- 0.0 -->
      <g transform="translate(398.68 306.199219) scale(0.1 -0.1)">
       <defs>
        <path id="DejaVuSans-2e" d="M 684 794 
L 1344 794 
L 1344 0 
L 684 0 
L 684 794 
z
" transform="scale(0.015625)"/>
       </defs>
       <use xlink:href="#DejaVuSans-30"/>
       <use xlink:href="#DejaVuSans-2e" x="63.623047"/>
       <use xlink:href="#DejaVuSans-30" x="95.410156"/>
      </g>
     </g>
    </g>
    <g id="ytick_2">
     <g id="line2d_10">
      <g>
       <use xlink:href="#m2fb34f8583" x="391.68" y="263.429807" style="stroke: #000000; stroke-width: 0.8"/>
      </g>
     </g>
     <g id="text_11">
      <!-- 0.1 -->
      <g transform="translate(398.68 267.229026) scale(0.1 -0.1)">
       <use xlink:href="#DejaVuSans-30"/>
       <use xlink:href="#DejaVuSans-2e" x="63.623047"/>
       <use xlink:href="#DejaVuSans-31" x="95.410156"/>
      </g>
     </g>
    </g>
    <g id="ytick_3">
     <g id="line2d_11">
      <g>
       <use xlink:href="#m2fb34f8583" x="391.68" y="224.459614" style="stroke: #000000; stroke-width: 0.8"/>
      </g>
     </g>
     <g id="text_12">
      <!-- 0.2 -->
      <g transform="translate(398.68 228.258833) scale(0.1 -0.1)">
       <use xlink:href="#DejaVuSans-30"/>
       <use xlink:href="#DejaVuSans-2e" x="63.623047"/>
       <use xlink:href="#DejaVuSans-32" x="95.410156"/>
      </g>
     </g>
    </g>
    <g id="ytick_4">
     <g id="line2d_12">
      <g>
       <use xlink:href="#m2fb34f8583" x="391.68" y="185.489421" style="stroke: #000000; stroke-width: 0.8"/>
      </g>
     </g>
     <g id="text_13">
      <!-- 0.3 -->
      <g transform="translate(398.68 189.28864) scale(0.1 -0.1)">
       <defs>
        <path id="DejaVuSans-33" d="M 2597 2516 
Q 3050 2419 3304 2112 
Q 3559 1806 3559 1356 
Q 3559 666 3084 287 
Q 2609 -91 1734 -91 
Q 1441 -91 1130 -33 
Q 819 25 488 141 
L 488 750 
Q 750 597 1062 519 
Q 1375 441 1716 441 
Q 2309 441 2620 675 
Q 2931 909 2931 1356 
Q 2931 1769 2642 2001 
Q 2353 2234 1838 2234 
L 1294 2234 
L 1294 2753 
L 1863 2753 
Q 2328 2753 2575 2939 
Q 2822 3125 2822 3475 
Q 2822 3834 2567 4026 
Q 2313 4219 1838 4219 
Q 1578 4219 1281 4162 
Q 984 4106 628 3988 
L 628 4550 
Q 988 4650 1302 4700 
Q 1616 4750 1894 4750 
Q 2613 4750 3031 4423 
Q 3450 4097 3450 3541 
Q 3450 3153 3228 2886 
Q 3006 2619 2597 2516 
z
" transform="scale(0.015625)"/>
       </defs>
       <use xlink:href="#DejaVuSans-30"/>
       <use xlink:href="#DejaVuSans-2e" x="63.623047"/>
       <use xlink:href="#DejaVuSans-33" x="95.410156"/>
      </g>
     </g>
    </g>
    <g id="ytick_5">
     <g id="line2d_13">
      <g>
       <use xlink:href="#m2fb34f8583" x="391.68" y="146.519229" style="stroke: #000000; stroke-width: 0.8"/>
      </g>
     </g>
     <g id="text_14">
      <!-- 0.4 -->
      <g transform="translate(398.68 150.318447) scale(0.1 -0.1)">
       <use xlink:href="#DejaVuSans-30"/>
       <use xlink:href="#DejaVuSans-2e" x="63.623047"/>
       <use xlink:href="#DejaVuSans-34" x="95.410156"/>
      </g>
     </g>
    </g>
    <g id="ytick_6">
     <g id="line2d_14">
      <g>
       <use xlink:href="#m2fb34f8583" x="391.68" y="107.549036" style="stroke: #000000; stroke-width: 0.8"/>
      </g>
     </g>
     <g id="text_15">
      <!-- 0.5 -->
      <g transform="translate(398.68 111.348255) scale(0.1 -0.1)">
       <defs>
        <path id="DejaVuSans-35" d="M 691 4666 
L 3169 4666 
L 3169 4134 
L 1269 4134 
L 1269 2991 
Q 1406 3038 1543 3061 
Q 1681 3084 1819 3084 
Q 2600 3084 3056 2656 
Q 3513 2228 3513 1497 
Q 3513 744 3044 326 
Q 2575 -91 1722 -91 
Q 1428 -91 1123 -41 
Q 819 9 494 109 
L 494 744 
Q 775 591 1075 516 
Q 1375 441 1709 441 
Q 2250 441 2565 725 
Q 2881 1009 2881 1497 
Q 2881 1984 2565 2268 
Q 2250 2553 1709 2553 
Q 1456 2553 1204 2497 
Q 953 2441 691 2322 
L 691 4666 
z
" transform="scale(0.015625)"/>
       </defs>
       <use xlink:href="#DejaVuSans-30"/>
       <use xlink:href="#DejaVuSans-2e" x="63.623047"/>
       <use xlink:href="#DejaVuSans-35" x="95.410156"/>
      </g>
     </g>
    </g>
    <g id="ytick_7">
     <g id="line2d_15">
      <g>
       <use xlink:href="#m2fb34f8583" x="391.68" y="68.578843" style="stroke: #000000; stroke-width: 0.8"/>
      </g>
     </g>
     <g id="text_16">
      <!-- 0.6 -->
      <g transform="translate(398.68 72.378062) scale(0.1 -0.1)">
       <use xlink:href="#DejaVuSans-30"/>
       <use xlink:href="#DejaVuSans-2e" x="63.623047"/>
       <use xlink:href="#DejaVuSans-36" x="95.410156"/>
      </g>
     </g>
    </g>
    <g id="ytick_8">
     <g id="line2d_16">
      <defs>
       <path id="mcc040a654b" d="M 0 0 
L 2 0 
" style="stroke: #000000; stroke-width: 0.6"/>
      </defs>
      <g>
       <use xlink:href="#mcc040a654b" x="391.68" y="294.605961" style="stroke: #000000; stroke-width: 0.6"/>
      </g>
     </g>
    </g>
    <g id="ytick_9">
     <g id="line2d_17">
      <g>
       <use xlink:href="#mcc040a654b" x="391.68" y="286.811923" style="stroke: #000000; stroke-width: 0.6"/>
      </g>
     </g>
    </g>
    <g id="ytick_10">
     <g id="line2d_18">
      <g>
       <use xlink:href="#mcc040a654b" x="391.68" y="279.017884" style="stroke: #000000; stroke-width: 0.6"/>
      </g>
     </g>
    </g>
    <g id="ytick_11">
     <g id="line2d_19">
      <g>
       <use xlink:href="#mcc040a654b" x="391.68" y="271.223846" style="stroke: #000000; stroke-width: 0.6"/>
      </g>
     </g>
    </g>
    <g id="ytick_12">
     <g id="line2d_20">
      <g>
       <use xlink:href="#mcc040a654b" x="391.68" y="255.635769" style="stroke: #000000; stroke-width: 0.6"/>
      </g>
     </g>
    </g>
    <g id="ytick_13">
     <g id="line2d_21">
      <g>
       <use xlink:href="#mcc040a654b" x="391.68" y="247.84173" style="stroke: #000000; stroke-width: 0.6"/>
      </g>
     </g>
    </g>
    <g id="ytick_14">
     <g id="line2d_22">
      <g>
       <use xlink:href="#mcc040a654b" x="391.68" y="240.047691" style="stroke: #000000; stroke-width: 0.6"/>
      </g>
     </g>
    </g>
    <g id="ytick_15">
     <g id="line2d_23">
      <g>
       <use xlink:href="#mcc040a654b" x="391.68" y="232.253653" style="stroke: #000000; stroke-width: 0.6"/>
      </g>
     </g>
    </g>
    <g id="ytick_16">
     <g id="line2d_24">
      <g>
       <use xlink:href="#mcc040a654b" x="391.68" y="216.665576" style="stroke: #000000; stroke-width: 0.6"/>
      </g>
     </g>
    </g>
    <g id="ytick_17">
     <g id="line2d_25">
      <g>
       <use xlink:href="#mcc040a654b" x="391.68" y="208.871537" style="stroke: #000000; stroke-width: 0.6"/>
      </g>
     </g>
    </g>
    <g id="ytick_18">
     <g id="line2d_26">
      <g>
       <use xlink:href="#mcc040a654b" x="391.68" y="201.077499" style="stroke: #000000; stroke-width: 0.6"/>
      </g>
     </g>
    </g>
    <g id="ytick_19">
     <g id="line2d_27">
      <g>
       <use xlink:href="#mcc040a654b" x="391.68" y="193.28346" style="stroke: #000000; stroke-width: 0.6"/>
      </g>
     </g>
    </g>
    <g id="ytick_20">
     <g id="line2d_28">
      <g>
       <use xlink:href="#mcc040a654b" x="391.68" y="177.695383" style="stroke: #000000; stroke-width: 0.6"/>
      </g>
     </g>
    </g>
    <g id="ytick_21">
     <g id="line2d_29">
      <g>
       <use xlink:href="#mcc040a654b" x="391.68" y="169.901344" style="stroke: #000000; stroke-width: 0.6"/>
      </g>
     </g>
    </g>
    <g id="ytick_22">
     <g id="line2d_30">
      <g>
       <use xlink:href="#mcc040a654b" x="391.68" y="162.107306" style="stroke: #000000; stroke-width: 0.6"/>
      </g>
     </g>
    </g>
    <g id="ytick_23">
     <g id="line2d_31">
      <g>
       <use xlink:href="#mcc040a654b" x="391.68" y="154.313267" style="stroke: #000000; stroke-width: 0.6"/>
      </g>
     </g>
    </g>
    <g id="ytick_24">
     <g id="line2d_32">
      <g>
       <use xlink:href="#mcc040a654b" x="391.68" y="138.72519" style="stroke: #000000; stroke-width: 0.6"/>
      </g>
     </g>
    </g>
    <g id="ytick_25">
     <g id="line2d_33">
      <g>
       <use xlink:href="#mcc040a654b" x="391.68" y="130.931152" style="stroke: #000000; stroke-width: 0.6"/>
      </g>
     </g>
    </g>
    <g id="ytick_26">
     <g id="line2d_34">
      <g>
       <use xlink:href="#mcc040a654b" x="391.68" y="123.137113" style="stroke: #000000; stroke-width: 0.6"/>
      </g>
     </g>
    </g>
    <g id="ytick_27">
     <g id="line2d_35">
      <g>
       <use xlink:href="#mcc040a654b" x="391.68" y="115.343074" style="stroke: #000000; stroke-width: 0.6"/>
      </g>
     </g>
    </g>
    <g id="ytick_28">
     <g id="line2d_36">
      <g>
       <use xlink:href="#mcc040a654b" x="391.68" y="99.754997" style="stroke: #000000; stroke-width: 0.6"/>
      </g>
     </g>
    </g>
    <g id="ytick_29">
     <g id="line2d_37">
      <g>
       <use xlink:href="#mcc040a654b" x="391.68" y="91.960959" style="stroke: #000000; stroke-width: 0.6"/>
      </g>
     </g>
    </g>
    <g id="ytick_30">
     <g id="line2d_38">
      <g>
       <use xlink:href="#mcc040a654b" x="391.68" y="84.16692" style="stroke: #000000; stroke-width: 0.6"/>
      </g>
     </g>
    </g>
    <g id="ytick_31">
     <g id="line2d_39">
      <g>
       <use xlink:href="#mcc040a654b" x="391.68" y="76.372882" style="stroke: #000000; stroke-width: 0.6"/>
      </g>
     </g>
    </g>
    <g id="ytick_32">
     <g id="line2d_40">
      <g>
       <use xlink:href="#mcc040a654b" x="391.68" y="60.784804" style="stroke: #000000; stroke-width: 0.6"/>
      </g>
     </g>
    </g>
    <g id="ytick_33">
     <g id="line2d_41">
      <g>
       <use xlink:href="#mcc040a654b" x="391.68" y="52.990766" style="stroke: #000000; stroke-width: 0.6"/>
      </g>
     </g>
    </g>
    <g id="ytick_34">
     <g id="line2d_42">
      <g>
       <use xlink:href="#mcc040a654b" x="391.68" y="45.196727" style="stroke: #000000; stroke-width: 0.6"/>
      </g>
     </g>
    </g>
    <g id="ytick_35">
     <g id="line2d_43">
      <g>
       <use xlink:href="#mcc040a654b" x="391.68" y="37.402689" style="stroke: #000000; stroke-width: 0.6"/>
      </g>
     </g>
    </g>
    <g id="text_17">
     <!-- Birth Rate (Miles/Hour) -->
     <g transform="translate(438.70125 236.937187) rotate(-90) scale(0.12 -0.12)">
      <defs>
       <path id="DejaVuSans-42" d="M 1259 2228 
L 1259 519 
L 2272 519 
Q 2781 519 3026 730 
Q 3272 941 3272 1375 
Q 3272 1813 3026 2020 
Q 2781 2228 2272 2228 
L 1259 2228 
z
M 1259 4147 
L 1259 2741 
L 2194 2741 
Q 2656 2741 2882 2914 
Q 3109 3088 3109 3444 
Q 3109 3797 2882 3972 
Q 2656 4147 2194 4147 
L 1259 4147 
z
M 628 4666 
L 2241 4666 
Q 2963 4666 3353 4366 
Q 3744 4066 3744 3513 
Q 3744 3084 3544 2831 
Q 3344 2578 2956 2516 
Q 3422 2416 3680 2098 
Q 3938 1781 3938 1306 
Q 3938 681 3513 340 
Q 3088 0 2303 0 
L 628 0 
L 628 4666 
z
" transform="scale(0.015625)"/>
       <path id="DejaVuSans-69" d="M 603 3500 
L 1178 3500 
L 1178 0 
L 603 0 
L 603 3500 
z
M 603 4863 
L 1178 4863 
L 1178 4134 
L 603 4134 
L 603 4863 
z
" transform="scale(0.015625)"/>
       <path id="DejaVuSans-74" d="M 1172 4494 
L 1172 3500 
L 2356 3500 
L 2356 3053 
L 1172 3053 
L 1172 1153 
Q 1172 725 1289 603 
Q 1406 481 1766 481 
L 2356 481 
L 2356 0 
L 1766 0 
Q 1100 0 847 248 
Q 594 497 594 1153 
L 594 3053 
L 172 3053 
L 172 3500 
L 594 3500 
L 594 4494 
L 1172 4494 
z
" transform="scale(0.015625)"/>
       <path id="DejaVuSans-68" d="M 3513 2113 
L 3513 0 
L 2938 0 
L 2938 2094 
Q 2938 2591 2744 2837 
Q 2550 3084 2163 3084 
Q 1697 3084 1428 2787 
Q 1159 2491 1159 1978 
L 1159 0 
L 581 0 
L 581 4863 
L 1159 4863 
L 1159 2956 
Q 1366 3272 1645 3428 
Q 1925 3584 2291 3584 
Q 2894 3584 3203 3211 
Q 3513 2838 3513 2113 
z
" transform="scale(0.015625)"/>
       <path id="DejaVuSans-20" transform="scale(0.015625)"/>
       <path id="DejaVuSans-52" d="M 2841 2188 
Q 3044 2119 3236 1894 
Q 3428 1669 3622 1275 
L 4263 0 
L 3584 0 
L 2988 1197 
Q 2756 1666 2539 1819 
Q 2322 1972 1947 1972 
L 1259 1972 
L 1259 0 
L 628 0 
L 628 4666 
L 2053 4666 
Q 2853 4666 3247 4331 
Q 3641 3997 3641 3322 
Q 3641 2881 3436 2590 
Q 3231 2300 2841 2188 
z
M 1259 4147 
L 1259 2491 
L 2053 2491 
Q 2509 2491 2742 2702 
Q 2975 2913 2975 3322 
Q 2975 3731 2742 3939 
Q 2509 4147 2053 4147 
L 1259 4147 
z
" transform="scale(0.015625)"/>
       <path id="DejaVuSans-28" d="M 1984 4856 
Q 1566 4138 1362 3434 
Q 1159 2731 1159 2009 
Q 1159 1288 1364 580 
Q 1569 -128 1984 -844 
L 1484 -844 
Q 1016 -109 783 600 
Q 550 1309 550 2009 
Q 550 2706 781 3412 
Q 1013 4119 1484 4856 
L 1984 4856 
z
" transform="scale(0.015625)"/>
       <path id="DejaVuSans-4d" d="M 628 4666 
L 1569 4666 
L 2759 1491 
L 3956 4666 
L 4897 4666 
L 4897 0 
L 4281 0 
L 4281 4097 
L 3078 897 
L 2444 897 
L 1241 4097 
L 1241 0 
L 628 0 
L 628 4666 
z
" transform="scale(0.015625)"/>
       <path id="DejaVuSans-6c" d="M 603 4863 
L 1178 4863 
L 1178 0 
L 603 0 
L 603 4863 
z
" transform="scale(0.015625)"/>
       <path id="DejaVuSans-73" d="M 2834 3397 
L 2834 2853 
Q 2591 2978 2328 3040 
Q 2066 3103 1784 3103 
Q 1356 3103 1142 2972 
Q 928 2841 928 2578 
Q 928 2378 1081 2264 
Q 1234 2150 1697 2047 
L 1894 2003 
Q 2506 1872 2764 1633 
Q 3022 1394 3022 966 
Q 3022 478 2636 193 
Q 2250 -91 1575 -91 
Q 1294 -91 989 -36 
Q 684 19 347 128 
L 347 722 
Q 666 556 975 473 
Q 1284 391 1588 391 
Q 1994 391 2212 530 
Q 2431 669 2431 922 
Q 2431 1156 2273 1281 
Q 2116 1406 1581 1522 
L 1381 1569 
Q 847 1681 609 1914 
Q 372 2147 372 2553 
Q 372 3047 722 3315 
Q 1072 3584 1716 3584 
Q 2034 3584 2315 3537 
Q 2597 3491 2834 3397 
z
" transform="scale(0.015625)"/>
       <path id="DejaVuSans-2f" d="M 1625 4666 
L 2156 4666 
L 531 -594 
L 0 -594 
L 1625 4666 
z
" transform="scale(0.015625)"/>
       <path id="DejaVuSans-48" d="M 628 4666 
L 1259 4666 
L 1259 2753 
L 3553 2753 
L 3553 4666 
L 4184 4666 
L 4184 0 
L 3553 0 
L 3553 2222 
L 1259 2222 
L 1259 0 
L 628 0 
L 628 4666 
z
" transform="scale(0.015625)"/>
       <path id="DejaVuSans-6f" d="M 1959 3097 
Q 1497 3097 1228 2736 
Q 959 2375 959 1747 
Q 959 1119 1226 758 
Q 1494 397 1959 397 
Q 2419 397 2687 759 
Q 2956 1122 2956 1747 
Q 2956 2369 2687 2733 
Q 2419 3097 1959 3097 
z
M 1959 3584 
Q 2709 3584 3137 3096 
Q 3566 2609 3566 1747 
Q 3566 888 3137 398 
Q 2709 -91 1959 -91 
Q 1206 -91 779 398 
Q 353 888 353 1747 
Q 353 2609 779 3096 
Q 1206 3584 1959 3584 
z
" transform="scale(0.015625)"/>
       <path id="DejaVuSans-75" d="M 544 1381 
L 544 3500 
L 1119 3500 
L 1119 1403 
Q 1119 906 1312 657 
Q 1506 409 1894 409 
Q 2359 409 2629 706 
Q 2900 1003 2900 1516 
L 2900 3500 
L 3475 3500 
L 3475 0 
L 2900 0 
L 2900 538 
Q 2691 219 2414 64 
Q 2138 -91 1772 -91 
Q 1169 -91 856 284 
Q 544 659 544 1381 
z
M 1991 3584 
L 1991 3584 
z
" transform="scale(0.015625)"/>
       <path id="DejaVuSans-29" d="M 513 4856 
L 1013 4856 
Q 1481 4119 1714 3412 
Q 1947 2706 1947 2009 
Q 1947 1309 1714 600 
Q 1481 -109 1013 -844 
L 513 -844 
Q 928 -128 1133 580 
Q 1338 1288 1338 2009 
Q 1338 2731 1133 3434 
Q 928 4138 513 4856 
z
" transform="scale(0.015625)"/>
      </defs>
      <use xlink:href="#DejaVuSans-42"/>
      <use xlink:href="#DejaVuSans-69" x="68.603516"/>
      <use xlink:href="#DejaVuSans-72" x="96.386719"/>
      <use xlink:href="#DejaVuSans-74" x="137.5"/>
      <use xlink:href="#DejaVuSans-68" x="176.708984"/>
      <use xlink:href="#DejaVuSans-20" x="240.087891"/>
      <use xlink:href="#DejaVuSans-52" x="271.875"/>
      <use xlink:href="#DejaVuSans-61" x="339.107422"/>
      <use xlink:href="#DejaVuSans-74" x="400.386719"/>
      <use xlink:href="#DejaVuSans-65" x="439.595703"/>
      <use xlink:href="#DejaVuSans-20" x="501.119141"/>
      <use xlink:href="#DejaVuSans-28" x="532.90625"/>
      <use xlink:href="#DejaVuSans-4d" x="571.919922"/>
      <use xlink:href="#DejaVuSans-69" x="658.199219"/>
      <use xlink:href="#DejaVuSans-6c" x="685.982422"/>
      <use xlink:href="#DejaVuSans-65" x="713.765625"/>
      <use xlink:href="#DejaVuSans-73" x="775.289062"/>
      <use xlink:href="#DejaVuSans-2f" x="827.388672"/>
      <use xlink:href="#DejaVuSans-48" x="861.080078"/>
      <use xlink:href="#DejaVuSans-6f" x="936.275391"/>
      <use xlink:href="#DejaVuSans-75" x="997.457031"/>
      <use xlink:href="#DejaVuSans-72" x="1060.835938"/>
      <use xlink:href="#DejaVuSans-29" x="1101.949219"/>
     </g>
    </g>
   </g>
   <g id="patch_146">
    <path d="M 23.04 302.4 
L 23.04 34.56 
" style="fill: none; stroke: #000000; stroke-width: 0.8; stroke-linejoin: miter; stroke-linecap: square"/>
   </g>
   <g id="patch_147">
    <path d="M 391.68 302.4 
L 391.68 34.56 
" style="fill: none; stroke: #000000; stroke-width: 0.8; stroke-linejoin: miter; stroke-linecap: square"/>
   </g>
   <g id="patch_148">
    <path d="M 23.04 302.4 
L 391.68 302.4 
" style="fill: none; stroke: #000000; stroke-width: 0.8; stroke-linejoin: miter; stroke-linecap: square"/>
   </g>
   <g id="patch_149">
    <path d="M 23.04 34.56 
L 391.68 34.56 
" style="fill: none; stroke: #000000; stroke-width: 0.8; stroke-linejoin: miter; stroke-linecap: square"/>
   </g>
   <g id="text_18">
    <!-- How Often People Called 'Miles' Are Born In The U.S. -->
    <g transform="translate(50.446875 28.56) scale(0.12 -0.12)">
     <defs>
      <path id="DejaVuSans-77" d="M 269 3500 
L 844 3500 
L 1563 769 
L 2278 3500 
L 2956 3500 
L 3675 769 
L 4391 3500 
L 4966 3500 
L 4050 0 
L 3372 0 
L 2619 2869 
L 1863 0 
L 1184 0 
L 269 3500 
z
" transform="scale(0.015625)"/>
      <path id="DejaVuSans-4f" d="M 2522 4238 
Q 1834 4238 1429 3725 
Q 1025 3213 1025 2328 
Q 1025 1447 1429 934 
Q 1834 422 2522 422 
Q 3209 422 3611 934 
Q 4013 1447 4013 2328 
Q 4013 3213 3611 3725 
Q 3209 4238 2522 4238 
z
M 2522 4750 
Q 3503 4750 4090 4092 
Q 4678 3434 4678 2328 
Q 4678 1225 4090 567 
Q 3503 -91 2522 -91 
Q 1538 -91 948 565 
Q 359 1222 359 2328 
Q 359 3434 948 4092 
Q 1538 4750 2522 4750 
z
" transform="scale(0.015625)"/>
      <path id="DejaVuSans-66" d="M 2375 4863 
L 2375 4384 
L 1825 4384 
Q 1516 4384 1395 4259 
Q 1275 4134 1275 3809 
L 1275 3500 
L 2222 3500 
L 2222 3053 
L 1275 3053 
L 1275 0 
L 697 0 
L 697 3053 
L 147 3053 
L 147 3500 
L 697 3500 
L 697 3744 
Q 697 4328 969 4595 
Q 1241 4863 1831 4863 
L 2375 4863 
z
" transform="scale(0.015625)"/>
      <path id="DejaVuSans-6e" d="M 3513 2113 
L 3513 0 
L 2938 0 
L 2938 2094 
Q 2938 2591 2744 2837 
Q 2550 3084 2163 3084 
Q 1697 3084 1428 2787 
Q 1159 2491 1159 1978 
L 1159 0 
L 581 0 
L 581 3500 
L 1159 3500 
L 1159 2956 
Q 1366 3272 1645 3428 
Q 1925 3584 2291 3584 
Q 2894 3584 3203 3211 
Q 3513 2838 3513 2113 
z
" transform="scale(0.015625)"/>
      <path id="DejaVuSans-50" d="M 1259 4147 
L 1259 2394 
L 2053 2394 
Q 2494 2394 2734 2622 
Q 2975 2850 2975 3272 
Q 2975 3691 2734 3919 
Q 2494 4147 2053 4147 
L 1259 4147 
z
M 628 4666 
L 2053 4666 
Q 2838 4666 3239 4311 
Q 3641 3956 3641 3272 
Q 3641 2581 3239 2228 
Q 2838 1875 2053 1875 
L 1259 1875 
L 1259 0 
L 628 0 
L 628 4666 
z
" transform="scale(0.015625)"/>
      <path id="DejaVuSans-70" d="M 1159 525 
L 1159 -1331 
L 581 -1331 
L 581 3500 
L 1159 3500 
L 1159 2969 
Q 1341 3281 1617 3432 
Q 1894 3584 2278 3584 
Q 2916 3584 3314 3078 
Q 3713 2572 3713 1747 
Q 3713 922 3314 415 
Q 2916 -91 2278 -91 
Q 1894 -91 1617 61 
Q 1341 213 1159 525 
z
M 3116 1747 
Q 3116 2381 2855 2742 
Q 2594 3103 2138 3103 
Q 1681 3103 1420 2742 
Q 1159 2381 1159 1747 
Q 1159 1113 1420 752 
Q 1681 391 2138 391 
Q 2594 391 2855 752 
Q 3116 1113 3116 1747 
z
" transform="scale(0.015625)"/>
      <path id="DejaVuSans-43" d="M 4122 4306 
L 4122 3641 
Q 3803 3938 3442 4084 
Q 3081 4231 2675 4231 
Q 1875 4231 1450 3742 
Q 1025 3253 1025 2328 
Q 1025 1406 1450 917 
Q 1875 428 2675 428 
Q 3081 428 3442 575 
Q 3803 722 4122 1019 
L 4122 359 
Q 3791 134 3420 21 
Q 3050 -91 2638 -91 
Q 1578 -91 968 557 
Q 359 1206 359 2328 
Q 359 3453 968 4101 
Q 1578 4750 2638 4750 
Q 3056 4750 3426 4639 
Q 3797 4528 4122 4306 
z
" transform="scale(0.015625)"/>
      <path id="DejaVuSans-64" d="M 2906 2969 
L 2906 4863 
L 3481 4863 
L 3481 0 
L 2906 0 
L 2906 525 
Q 2725 213 2448 61 
Q 2172 -91 1784 -91 
Q 1150 -91 751 415 
Q 353 922 353 1747 
Q 353 2572 751 3078 
Q 1150 3584 1784 3584 
Q 2172 3584 2448 3432 
Q 2725 3281 2906 2969 
z
M 947 1747 
Q 947 1113 1208 752 
Q 1469 391 1925 391 
Q 2381 391 2643 752 
Q 2906 1113 2906 1747 
Q 2906 2381 2643 2742 
Q 2381 3103 1925 3103 
Q 1469 3103 1208 2742 
Q 947 2381 947 1747 
z
" transform="scale(0.015625)"/>
      <path id="DejaVuSans-27" d="M 1147 4666 
L 1147 2931 
L 616 2931 
L 616 4666 
L 1147 4666 
z
" transform="scale(0.015625)"/>
      <path id="DejaVuSans-41" d="M 2188 4044 
L 1331 1722 
L 3047 1722 
L 2188 4044 
z
M 1831 4666 
L 2547 4666 
L 4325 0 
L 3669 0 
L 3244 1197 
L 1141 1197 
L 716 0 
L 50 0 
L 1831 4666 
z
" transform="scale(0.015625)"/>
      <path id="DejaVuSans-49" d="M 628 4666 
L 1259 4666 
L 1259 0 
L 628 0 
L 628 4666 
z
" transform="scale(0.015625)"/>
      <path id="DejaVuSans-54" d="M -19 4666 
L 3928 4666 
L 3928 4134 
L 2272 4134 
L 2272 0 
L 1638 0 
L 1638 4134 
L -19 4134 
L -19 4666 
z
" transform="scale(0.015625)"/>
      <path id="DejaVuSans-55" d="M 556 4666 
L 1191 4666 
L 1191 1831 
Q 1191 1081 1462 751 
Q 1734 422 2344 422 
Q 2950 422 3222 751 
Q 3494 1081 3494 1831 
L 3494 4666 
L 4128 4666 
L 4128 1753 
Q 4128 841 3676 375 
Q 3225 -91 2344 -91 
Q 1459 -91 1007 375 
Q 556 841 556 1753 
L 556 4666 
z
" transform="scale(0.015625)"/>
      <path id="DejaVuSans-53" d="M 3425 4513 
L 3425 3897 
Q 3066 4069 2747 4153 
Q 2428 4238 2131 4238 
Q 1616 4238 1336 4038 
Q 1056 3838 1056 3469 
Q 1056 3159 1242 3001 
Q 1428 2844 1947 2747 
L 2328 2669 
Q 3034 2534 3370 2195 
Q 3706 1856 3706 1288 
Q 3706 609 3251 259 
Q 2797 -91 1919 -91 
Q 1588 -91 1214 -16 
Q 841 59 441 206 
L 441 856 
Q 825 641 1194 531 
Q 1563 422 1919 422 
Q 2459 422 2753 634 
Q 3047 847 3047 1241 
Q 3047 1584 2836 1778 
Q 2625 1972 2144 2069 
L 1759 2144 
Q 1053 2284 737 2584 
Q 422 2884 422 3419 
Q 422 4038 858 4394 
Q 1294 4750 2059 4750 
Q 2388 4750 2728 4690 
Q 3069 4631 3425 4513 
z
" transform="scale(0.015625)"/>
     </defs>
     <use xlink:href="#DejaVuSans-48"/>
     <use xlink:href="#DejaVuSans-6f" x="75.195312"/>
     <use xlink:href="#DejaVuSans-77" x="136.376953"/>
     <use xlink:href="#DejaVuSans-20" x="218.164062"/>
     <use xlink:href="#DejaVuSans-4f" x="249.951172"/>
     <use xlink:href="#DejaVuSans-66" x="328.662109"/>
     <use xlink:href="#DejaVuSans-74" x="362.117188"/>
     <use xlink:href="#DejaVuSans-65" x="401.326172"/>
     <use xlink:href="#DejaVuSans-6e" x="462.849609"/>
     <use xlink:href="#DejaVuSans-20" x="526.228516"/>
     <use xlink:href="#DejaVuSans-50" x="558.015625"/>
     <use xlink:href="#DejaVuSans-65" x="614.693359"/>
     <use xlink:href="#DejaVuSans-6f" x="676.216797"/>
     <use xlink:href="#DejaVuSans-70" x="737.398438"/>
     <use xlink:href="#DejaVuSans-6c" x="800.875"/>
     <use xlink:href="#DejaVuSans-65" x="828.658203"/>
     <use xlink:href="#DejaVuSans-20" x="890.181641"/>
     <use xlink:href="#DejaVuSans-43" x="921.96875"/>
     <use xlink:href="#DejaVuSans-61" x="991.792969"/>
     <use xlink:href="#DejaVuSans-6c" x="1053.072266"/>
     <use xlink:href="#DejaVuSans-6c" x="1080.855469"/>
     <use xlink:href="#DejaVuSans-65" x="1108.638672"/>
     <use xlink:href="#DejaVuSans-64" x="1170.162109"/>
     <use xlink:href="#DejaVuSans-20" x="1233.638672"/>
     <use xlink:href="#DejaVuSans-27" x="1265.425781"/>
     <use xlink:href="#DejaVuSans-4d" x="1292.916016"/>
     <use xlink:href="#DejaVuSans-69" x="1379.195312"/>
     <use xlink:href="#DejaVuSans-6c" x="1406.978516"/>
     <use xlink:href="#DejaVuSans-65" x="1434.761719"/>
     <use xlink:href="#DejaVuSans-73" x="1496.285156"/>
     <use xlink:href="#DejaVuSans-27" x="1548.384766"/>
     <use xlink:href="#DejaVuSans-20" x="1575.875"/>
     <use xlink:href="#DejaVuSans-41" x="1607.662109"/>
     <use xlink:href="#DejaVuSans-72" x="1676.070312"/>
     <use xlink:href="#DejaVuSans-65" x="1714.933594"/>
     <use xlink:href="#DejaVuSans-20" x="1776.457031"/>
     <use xlink:href="#DejaVuSans-42" x="1808.244141"/>
     <use xlink:href="#DejaVuSans-6f" x="1876.847656"/>
     <use xlink:href="#DejaVuSans-72" x="1938.029297"/>
     <use xlink:href="#DejaVuSans-6e" x="1977.392578"/>
     <use xlink:href="#DejaVuSans-20" x="2040.771484"/>
     <use xlink:href="#DejaVuSans-49" x="2072.558594"/>
     <use xlink:href="#DejaVuSans-6e" x="2102.050781"/>
     <use xlink:href="#DejaVuSans-20" x="2165.429688"/>
     <use xlink:href="#DejaVuSans-54" x="2197.216797"/>
     <use xlink:href="#DejaVuSans-68" x="2258.300781"/>
     <use xlink:href="#DejaVuSans-65" x="2321.679688"/>
     <use xlink:href="#DejaVuSans-20" x="2383.203125"/>
     <use xlink:href="#DejaVuSans-55" x="2414.990234"/>
     <use xlink:href="#DejaVuSans-2e" x="2488.183594"/>
     <use xlink:href="#DejaVuSans-53" x="2519.970703"/>
     <use xlink:href="#DejaVuSans-2e" x="2583.447266"/>
    </g>
   </g>
  </g>
 </g>
 <defs>
  <clipPath id="p59bb5aaa0c">
   <rect x="23.04" y="34.56" width="368.64" height="267.84"/>
  </clipPath>
 </defs>
</svg>
